<svg xmlns="http://www.w3.org/2000/svg" viewBox="0 0 150.96 141.779"><defs><style>.cls-3{fill:#fff}</style></defs><g id="Group_53" data-name="Group 53" transform="translate(-281.921 -285.753)"><text id="Food_Hut" data-name="Food Hut" transform="translate(357.401 393.716)" font-family="BebasNeueBold,Bebas Neue" font-size="38.206" fill="#fff"><tspan x="-55.017" y="0">Food Hut</tspan></text><text id="THE" transform="translate(354.267 351.211)" font-size="21.299" font-family="BebasNeueBold,Bebas Neue" fill="#fff"><tspan x="-12.257" y="0">THE</tspan></text><path id="Rectangle_3" data-name="Rectangle 3" class="cls-3" transform="translate(284.436 358.163)" d="M0 0h145.929v3.316H0z"/><path id="Rectangle_4" data-name="Rectangle 4" class="cls-3" transform="translate(284.436 398.699)" d="M0 0h145.929v3.316H0z"/><g id="Group_48" data-name="Group 48"><path id="Path_10897" data-name="Path 10897" class="cls-3" d="M344.979 323.734s13.746 6.129 25.974 2.116c0 0-.429-6.782 2.292-9.652s8.918-8.164 4.99-14.968-10.129-3.327-11.945-2.116c0 0 0-11.127-12.4-11.127s-11.188 12.185-11.188 12.185-8.012-5.293-12.85 1.664.573 15.012 9.342 16.069a19.021 19.021 0 01.968 9.088 52.4 52.4 0 0014.483 3.779s-10.719.258-16.766-3.129c0 0 2.5-5.768.1-8.528 0 0-15.086-1.5-11.716-14.06 3.185-11.869 15.076-7.152 15.076-7.152s-.469-11.2 11.034-12.091c12.851-1 15.12 11.033 15.12 11.033s7.484-4.989 12.926 3.175.076 11.753-3.25 14.515c-4.082 3.387-5.593 8.919-4.233 14.815a45.541 45.541 0 01-27.957-5.616z"/><path id="Path_10898" data-name="Path 10898" class="cls-3" d="M343.479 312.276s14.536 9.658 27.909-1.154c0 0-11.788 15.142-27.909 1.154z"/><path id="Path_10899" data-name="Path 10899" class="cls-3" d="M338.052 314.645s7.287-1.186 8.33-8.386c0 0 2.13 8.983-8.33 8.386z"/><path id="Path_10900" data-name="Path 10900" class="cls-3" d="M364.148 300.442s-3.188-9.442-13-9.223c.004 0 8.615-3.985 13 9.223z"/></g><g id="Group_51" data-name="Group 51"><g id="Group_49" data-name="Group 49"><path id="Path_10901" data-name="Path 10901" class="cls-3" d="M385.836 337.46l-26.251 24.019h5.1L388.155 340l7.766 8.517a2.937 2.937 0 003.833.363l32.159-24.037a2.315 2.315 0 00.335-3.474l-23.794-26.093a2.322 2.322 0 00-3.493.009L379.7 323.3l-1.634 1.806a2.932 2.932 0 00.012 3.847zm37.61-17.48a.959.959 0 01.268.2l1.168 1.278a.888.888 0 01-.129 1.335l-23.925 17.746a1.134 1.134 0 01-1.476-.138l-.581-.641a.913.913 0 01.114-1.351l23.374-18.348a1.08 1.08 0 011.187-.081zm-6.106-5.945a1.03 1.03 0 01.78.087.455.455 0 01.045.025 1.139 1.139 0 01.2.168l1.169 1.281a.95.95 0 01-.1 1.377l-22.753 19.021a1.044 1.044 0 01-1.436-.1l-.582-.635a.983.983 0 01.074-1.4l4.5-3.971-.241.207 17.942-15.859a.963.963 0 01.402-.201zm-5.566-5.71c.012-.009.023-.019.033-.025s.019-.009.03-.018a.945.945 0 011.043.043.918.918 0 01.148.133l1.17 1.281a1.019 1.019 0 01-.054 1.42l-21.584 20.3a.979.979 0 01-1.4-.05l-.584-.639a.877.877 0 01-.139-.2c0-.008-.008-.018-.011-.028a1.07 1.07 0 01-.068-.722c-.008.011-.014.028-.024.04a1.011 1.011 0 01.281-.525l21.036-20.908a.953.953 0 01.123-.102zm-25.548 17a1.09 1.09 0 01.248-.523l7.853-8.764-.037.042 12.061-13.469a.88.88 0 011.337-.007l1.17 1.28a1.1 1.1 0 01-.017 1.463l-20.418 21.583a.918.918 0 01-1.36-.012l-.58-.64a1.02 1.02 0 01-.145-.206.276.276 0 01-.013-.033 1.153 1.153 0 01-.077-.757.113.113 0 00-.022.04z"/><path id="Path_10902" data-name="Path 10902" class="cls-3" d="M310.8 401.647l-12.949 11.483a2.6 2.6 0 00-.17 3.671l2.357 2.579.63.692a2.6 2.6 0 003.668.169l20.975-18.594z"/></g><g id="Group_50" data-name="Group 50"><path id="Path_10903" data-name="Path 10903" class="cls-3" d="M317.142 331.882l-.407.417-2.064 2.117s-2.047 1.777-4.793-1.211-27.957-30.1-27.957-30.1l26.56 36.366a8.989 8.989 0 006.305 2.661h.006a9.243 9.243 0 00.76-.036q.274-.025.552-.069c.061-.01.117-.017.178-.028.182-.028.365-.068.551-.113l.178-.04c.228-.056.459-.124.694-.2l.046-.015c.252-.084.508-.181.768-.288a2.67 2.67 0 00.209-.1c.189-.086.374-.168.568-.265.1-.048.2-.1.294-.156.169-.091.338-.181.511-.285.1-.063.21-.128.32-.2.171-.106.344-.221.52-.34l.318-.219c.187-.139.381-.284.576-.433.057-.046.111-.082.168-.128l23.31 22.254h4.893l-25.871-24.7c5.947-8.081-.231-13.328-.231-13.328l-37.142-25.503s27.849 24.4 30.91 27.065 1.334 4.757 1.334 4.757z"/><path id="Path_10904" data-name="Path 10904" class="cls-3" d="M396.5 401.647h-13.59l20.018 19.387a2.559 2.559 0 003.609-.045l2.393-2.458.643-.658a2.561 2.561 0 00-.046-3.61z"/></g></g><text id="EST_1957" data-name="EST 1957" transform="translate(357.293 413.202)" font-size="7.93" font-family="Helvetica" letter-spacing=".03em" fill="#fff"><tspan x="-18.395" y="0">EST 1957</tspan></text><g id="Group_52" data-name="Group 52"><path id="Path_10905" data-name="Path 10905" class="cls-3" d="M330.157 419.04l1.055 3.244h3.41l-2.76 2 1.055 3.244-2.76-2-2.76 2 1.055-3.244-2.76-2h3.41z"/><path id="Path_10906" data-name="Path 10906" class="cls-3" d="M343.78 419.04l1.053 3.244h3.41l-2.758 2 1.053 3.244-2.758-2-2.76 2 1.053-3.244-2.759-2h3.411z"/><path id="Path_10907" data-name="Path 10907" class="cls-3" d="M357.4 419.04l1.055 3.244h3.41l-2.76 2 1.055 3.244-2.76-2-2.76 2 1.055-3.244-2.76-2h3.41z"/><path id="Path_10908" data-name="Path 10908" class="cls-3" d="M371.023 419.04l1.054 3.244h3.412l-2.76 2 1.054 3.244-2.76-2-2.759 2 1.055-3.244-2.762-2h3.411z"/><path id="Path_10909" data-name="Path 10909" class="cls-3" d="M384.645 419.04l1.055 3.244h3.41l-2.76 2 1.054 3.244-2.759-2-2.76 2 1.055-3.244-2.761-2h3.411z"/></g></g></svg>